<svg width="30" height="25" viewBox="0 0 20 18" fill="none" xmlns="http://www.w3.org/2000/svg">
<path d="M15.2112 5.21381C14.8597 4.99732 14.4026 4.99732 14.016 5.21381L11.274 6.87355L9.41081 7.956L6.66883 9.61579C6.31731 9.83227 5.8603 9.83227 5.47361 9.61579L3.29408 8.31685C2.94254 8.10037 2.69646 7.70347 2.69646 7.27045V4.70867C2.69646 4.27569 2.90738 3.87879 3.29408 3.6623L5.43845 2.39943C5.78999 2.18294 6.24697 2.18294 6.63369 2.39943L8.77806 3.6623C9.12958 3.87879 9.37566 4.27569 9.37566 4.70867V6.36843L11.2388 5.24989V3.59013C11.2388 3.15715 11.0279 2.76026 10.6412 2.54377L6.66883 0.162368C6.31731 -0.0541227 5.8603 -0.0541227 5.47361 0.162368L1.43093 2.54377C1.04424 2.76026 0.833313 3.15715 0.833313 3.59013V8.38901C0.833313 8.82197 1.04424 9.21888 1.43093 9.43536L5.47361 11.8167C5.82515 12.0333 6.28217 12.0333 6.66883 11.8167L9.41081 10.1931L11.274 9.07456L14.016 7.45088C14.3675 7.2344 14.8245 7.2344 15.2112 7.45088L17.3556 8.71376C17.7071 8.93024 17.9532 9.32715 17.9532 9.76011V12.3219C17.9532 12.7549 17.7423 13.1518 17.3556 13.3683L15.2112 14.6673C14.8597 14.8837 14.4026 14.8837 14.016 14.6673L11.8716 13.4044C11.52 13.1879 11.274 12.791 11.274 12.358V10.6982L9.41081 11.8167V13.4765C9.41081 13.9095 9.62174 14.3064 10.0085 14.5229L14.0511 16.9043C14.4026 17.1208 14.8597 17.1208 15.2463 16.9043L19.289 14.5229C19.6406 14.3064 19.8866 13.9095 19.8866 13.4765V8.67765C19.8866 8.24469 19.6757 7.84779 19.289 7.63131L15.2112 5.21381Z" fill="#7950DD"/>
</svg>
